G04 #@! TF.GenerationSoftware,KiCad,Pcbnew,6.0.6-3a73a75311~116~ubuntu20.04.1*
G04 #@! TF.CreationDate,2022-07-28T13:36:28+02:00*
G04 #@! TF.ProjectId,Buddy_shield_extractor,42756464-795f-4736-9869-656c645f6578,rev?*
G04 #@! TF.SameCoordinates,Original*
G04 #@! TF.FileFunction,Legend,Bot*
G04 #@! TF.FilePolarity,Positive*
%FSLAX46Y46*%
G04 Gerber Fmt 4.6, Leading zero omitted, Abs format (unit mm)*
G04 Created by KiCad (PCBNEW 6.0.6-3a73a75311~116~ubuntu20.04.1) date 2022-07-28 13:36:28*
%MOMM*%
%LPD*%
G01*
G04 APERTURE LIST*
%ADD10C,0.150000*%
%ADD11C,0.120000*%
G04 APERTURE END LIST*
D10*
G04 #@! TO.C,J1*
X94982380Y-62026666D02*
X95696666Y-62026666D01*
X95839523Y-61979047D01*
X95934761Y-61883809D01*
X95982380Y-61740952D01*
X95982380Y-61645714D01*
X95982380Y-63026666D02*
X95982380Y-62455238D01*
X95982380Y-62740952D02*
X94982380Y-62740952D01*
X95125238Y-62645714D01*
X95220476Y-62550476D01*
X95268095Y-62455238D01*
G04 #@! TO.C,J2*
X141053333Y-115482380D02*
X141053333Y-116196666D01*
X141100952Y-116339523D01*
X141196190Y-116434761D01*
X141339047Y-116482380D01*
X141434285Y-116482380D01*
X140624761Y-115577619D02*
X140577142Y-115530000D01*
X140481904Y-115482380D01*
X140243809Y-115482380D01*
X140148571Y-115530000D01*
X140100952Y-115577619D01*
X140053333Y-115672857D01*
X140053333Y-115768095D01*
X140100952Y-115910952D01*
X140672380Y-116482380D01*
X140053333Y-116482380D01*
G04 #@! TO.C,J5*
X138672380Y-64186666D02*
X139386666Y-64186666D01*
X139529523Y-64139047D01*
X139624761Y-64043809D01*
X139672380Y-63900952D01*
X139672380Y-63805714D01*
X138672380Y-65139047D02*
X138672380Y-64662857D01*
X139148571Y-64615238D01*
X139100952Y-64662857D01*
X139053333Y-64758095D01*
X139053333Y-64996190D01*
X139100952Y-65091428D01*
X139148571Y-65139047D01*
X139243809Y-65186666D01*
X139481904Y-65186666D01*
X139577142Y-65139047D01*
X139624761Y-65091428D01*
X139672380Y-64996190D01*
X139672380Y-64758095D01*
X139624761Y-64662857D01*
X139577142Y-64615238D01*
G04 #@! TO.C,J13*
X181149523Y-113512380D02*
X181149523Y-114226666D01*
X181197142Y-114369523D01*
X181292380Y-114464761D01*
X181435238Y-114512380D01*
X181530476Y-114512380D01*
X180149523Y-114512380D02*
X180720952Y-114512380D01*
X180435238Y-114512380D02*
X180435238Y-113512380D01*
X180530476Y-113655238D01*
X180625714Y-113750476D01*
X180720952Y-113798095D01*
X179816190Y-113512380D02*
X179197142Y-113512380D01*
X179530476Y-113893333D01*
X179387619Y-113893333D01*
X179292380Y-113940952D01*
X179244761Y-113988571D01*
X179197142Y-114083809D01*
X179197142Y-114321904D01*
X179244761Y-114417142D01*
X179292380Y-114464761D01*
X179387619Y-114512380D01*
X179673333Y-114512380D01*
X179768571Y-114464761D01*
X179816190Y-114417142D01*
G04 #@! TO.C,J6*
X189043333Y-108592380D02*
X189043333Y-109306666D01*
X189090952Y-109449523D01*
X189186190Y-109544761D01*
X189329047Y-109592380D01*
X189424285Y-109592380D01*
X188138571Y-108592380D02*
X188329047Y-108592380D01*
X188424285Y-108640000D01*
X188471904Y-108687619D01*
X188567142Y-108830476D01*
X188614761Y-109020952D01*
X188614761Y-109401904D01*
X188567142Y-109497142D01*
X188519523Y-109544761D01*
X188424285Y-109592380D01*
X188233809Y-109592380D01*
X188138571Y-109544761D01*
X188090952Y-109497142D01*
X188043333Y-109401904D01*
X188043333Y-109163809D01*
X188090952Y-109068571D01*
X188138571Y-109020952D01*
X188233809Y-108973333D01*
X188424285Y-108973333D01*
X188519523Y-109020952D01*
X188567142Y-109068571D01*
X188614761Y-109163809D01*
G04 #@! TO.C,A1*
X164664285Y-124766666D02*
X164188095Y-124766666D01*
X164759523Y-125052380D02*
X164426190Y-124052380D01*
X164092857Y-125052380D01*
X163235714Y-125052380D02*
X163807142Y-125052380D01*
X163521428Y-125052380D02*
X163521428Y-124052380D01*
X163616666Y-124195238D01*
X163711904Y-124290476D01*
X163807142Y-124338095D01*
D11*
G04 #@! TO.C,J1*
X99570000Y-63690000D02*
X107250000Y-63690000D01*
X96970000Y-63690000D02*
X98300000Y-63690000D01*
X99570000Y-61030000D02*
X107250000Y-61030000D01*
X99570000Y-61030000D02*
X99570000Y-63690000D01*
X96970000Y-62360000D02*
X96970000Y-63690000D01*
X107250000Y-61030000D02*
X107250000Y-63690000D01*
G04 #@! TO.C,J2*
X143320000Y-117030000D02*
X141990000Y-117030000D01*
X140720000Y-117030000D02*
X138120000Y-117030000D01*
X143320000Y-127310000D02*
X138120000Y-127310000D01*
X143320000Y-119630000D02*
X140720000Y-119630000D01*
X140720000Y-119630000D02*
X140720000Y-117030000D01*
X143320000Y-119630000D02*
X143320000Y-127310000D01*
X143320000Y-118360000D02*
X143320000Y-117030000D01*
X138120000Y-117030000D02*
X138120000Y-127310000D01*
G04 #@! TO.C,J5*
X140660000Y-65790000D02*
X140660000Y-67120000D01*
X158560000Y-61920000D02*
X158560000Y-67120000D01*
X140660000Y-67120000D02*
X141990000Y-67120000D01*
X140660000Y-64520000D02*
X143260000Y-64520000D01*
X140660000Y-61920000D02*
X158560000Y-61920000D01*
X143260000Y-67120000D02*
X158560000Y-67120000D01*
X143260000Y-64520000D02*
X143260000Y-67120000D01*
X140660000Y-61920000D02*
X140660000Y-64520000D01*
G04 #@! TO.C,J13*
X185420000Y-109860000D02*
X185400000Y-114160000D01*
X175240000Y-114160000D02*
X185400000Y-114160000D01*
X175240000Y-114160000D02*
X175260000Y-109860000D01*
X175260000Y-109860000D02*
X185420000Y-109860000D01*
G04 #@! TO.C,J6*
X193700000Y-109900000D02*
X193680000Y-114200000D01*
X188440000Y-114200000D02*
X188460000Y-109900000D01*
X193700000Y-109900000D02*
X188460000Y-109900000D01*
X193680000Y-114200000D02*
X188440000Y-114200000D01*
G04 #@! TO.C,A1*
X161750000Y-127800000D02*
X162150000Y-127800000D01*
X163750000Y-127800000D02*
X164150000Y-127800000D01*
X165750000Y-127800000D02*
X166150000Y-127800000D01*
X157750000Y-127800000D02*
X158150000Y-127800000D01*
X155750000Y-127800000D02*
X156150000Y-127800000D01*
X153950000Y-127800000D02*
X154150000Y-127800000D01*
X174950000Y-127800000D02*
X173950000Y-127800000D01*
X153950000Y-126400000D02*
X153950000Y-127000000D01*
X152850000Y-127800000D02*
X153950000Y-127800000D01*
X167750000Y-127800000D02*
X168150000Y-127800000D01*
X153950000Y-125300000D02*
X173950000Y-125300000D01*
X153950000Y-126400000D02*
X153950000Y-125300000D01*
X153950000Y-127000000D02*
X152850000Y-127000000D01*
X152850000Y-127000000D02*
X152850000Y-127800000D01*
X173950000Y-125300000D02*
X173950000Y-126400000D01*
X173950000Y-126400000D02*
X173950000Y-127000000D01*
X159750000Y-127800000D02*
X160150000Y-127800000D01*
X173950000Y-127000000D02*
X174950000Y-127000000D01*
X169750000Y-127800000D02*
X170150000Y-127800000D01*
X171750000Y-127800000D02*
X172150000Y-127800000D01*
X174950000Y-127000000D02*
X174950000Y-127800000D01*
X169450000Y-126000000D02*
G75*
G03*
X169450000Y-126000000I-500000J0D01*
G01*
X165450000Y-126000000D02*
G75*
G03*
X165450000Y-126000000I-500000J0D01*
G01*
X159450000Y-126000000D02*
G75*
G03*
X159450000Y-126000000I-500000J0D01*
G01*
X171450000Y-126000000D02*
G75*
G03*
X171450000Y-126000000I-500000J0D01*
G01*
X161450000Y-126000000D02*
G75*
G03*
X161450000Y-126000000I-500000J0D01*
G01*
X157450000Y-126000000D02*
G75*
G03*
X157450000Y-126000000I-500000J0D01*
G01*
X155450000Y-126000000D02*
G75*
G03*
X155450000Y-126000000I-500000J0D01*
G01*
X173450000Y-126000000D02*
G75*
G03*
X173450000Y-126000000I-500000J0D01*
G01*
X163450000Y-126000000D02*
G75*
G03*
X163450000Y-126000000I-500000J0D01*
G01*
X167450000Y-126000000D02*
G75*
G03*
X167450000Y-126000000I-500000J0D01*
G01*
G04 #@! TD*
M02*
