M48
; DRILL file {KiCad 6.0.6-3a73a75311~116~ubuntu20.04.1} date Thu 28 Jul 2022 01:36:28 PM CEST
; FORMAT={-:-/ absolute / metric / decimal}
; #@! TF.CreationDate,2022-07-28T13:36:28+02:00
; #@! TF.GenerationSoftware,Kicad,Pcbnew,6.0.6-3a73a75311~116~ubuntu20.04.1
; #@! TF.FileFunction,MixedPlating,1,2
FMAT,2
METRIC
; #@! TA.AperFunction,Plated,PTH,ViaDrill
T1C0.400
; #@! TA.AperFunction,Plated,PTH,ComponentDrill
T2C0.762
; #@! TA.AperFunction,Plated,PTH,ComponentDrill
T3C0.900
; #@! TA.AperFunction,Plated,PTH,ComponentDrill
T4C1.000
; #@! TA.AperFunction,Plated,PTH,ComponentDrill
T5C1.500
; #@! TA.AperFunction,Plated,PTH,ComponentDrill
T6C4.400
%
G90
G05
T1
X106.4Y-71.5
X113.9Y-69.3
X118.37Y-73.322
X123.5Y-73.3
X123.7Y-82.2
X124.7Y-80.1
X125.5Y-73.05
X125.7Y-103.276
X126.45Y-104.55
X127.4Y-96.3
X128.0Y-79.4
X128.95Y-98.45
X130.1Y-123.6
X130.8Y-102.0
X131.8Y-117.7
X132.0Y-105.9
X132.8Y-111.8
X133.0Y-117.6
X133.5Y-96.9
X134.3Y-86.5
X134.5Y-106.7
X134.8Y-99.1
X135.1Y-95.5
X135.6Y-102.9
X136.1Y-82.2
X136.1Y-106.6
X136.2Y-97.7
X137.2Y-89.6
X137.4Y-103.3
X137.4Y-118.0
X137.6Y-115.9
X137.8Y-80.1
X138.1Y-105.0
X138.2Y-111.6
X139.9Y-71.5
X141.5Y-77.0
X141.5Y-115.7
X141.6Y-112.1
X141.708Y-95.792
X142.8Y-80.6
X142.9Y-72.7
X143.6Y-77.3
X143.6Y-103.0
X144.3Y-96.5
X144.4Y-87.5
X145.5Y-76.8
X145.6Y-102.6
X145.8Y-109.1
X145.9Y-92.6
X146.0Y-79.9
X147.1Y-89.1
X148.1Y-67.9
X149.945Y-110.85
X152.133Y-81.288
X152.45Y-74.35
X153.147Y-78.553
X153.2Y-75.393
X153.2Y-77.19
X153.2Y-111.6
X153.3Y-61.7
X153.7Y-93.4
X154.3Y-104.6
X154.391Y-92.609
X154.685Y-118.139
X154.7Y-109.8
X155.437Y-93.682
X156.0Y-94.8
X156.045Y-60.35
X156.6Y-118.6
X156.628Y-93.769
X156.9Y-80.8
X157.0Y-107.6
X157.1Y-94.65
X157.1Y-99.4
X157.266Y-102.074
X157.3Y-114.9
X157.4Y-111.702
X158.3Y-94.65
X159.5Y-69.2
X160.0Y-115.0
X160.7Y-96.5
X160.9Y-83.6
X161.3Y-114.3
X162.0Y-67.9
X162.0Y-118.9
X164.0Y-65.8
X165.7Y-64.5
X165.8Y-100.15
X170.25Y-123.85
X173.3Y-122.3
T2
X116.93Y-71.62
X116.93Y-79.24
X116.93Y-81.78
X116.93Y-84.32
X119.47Y-71.62
X119.47Y-84.32
X122.01Y-71.62
X122.01Y-84.32
X124.55Y-71.62
X124.55Y-84.32
X127.09Y-71.62
X127.09Y-84.32
X129.63Y-71.62
X129.63Y-84.32
X132.17Y-71.62
X132.17Y-84.32
X134.71Y-71.62
X134.71Y-84.32
X137.74Y-69.78
X137.74Y-82.48
X137.74Y-85.28
X137.74Y-97.98
X137.74Y-100.78
X137.74Y-113.48
X140.28Y-69.78
X140.28Y-82.48
X140.28Y-85.28
X140.28Y-97.98
X140.28Y-100.78
X140.28Y-113.48
X142.82Y-69.78
X142.82Y-82.48
X142.82Y-85.28
X142.82Y-97.98
X142.82Y-100.78
X142.82Y-113.48
X145.36Y-69.78
X145.36Y-82.48
X145.36Y-85.28
X145.36Y-97.98
X145.36Y-100.78
X145.36Y-113.48
X147.9Y-69.78
X147.9Y-82.48
X147.9Y-85.28
X147.9Y-97.98
X147.9Y-100.78
X147.9Y-113.48
X150.44Y-69.78
X150.44Y-82.48
X150.44Y-85.28
X150.44Y-97.98
X150.44Y-100.78
X150.44Y-113.48
X152.98Y-69.78
X152.98Y-82.48
X152.98Y-85.28
X152.98Y-97.98
X152.98Y-100.78
X152.98Y-113.48
X155.52Y-69.78
X155.52Y-72.32
X155.52Y-74.86
X155.52Y-82.48
X155.52Y-85.28
X155.52Y-87.82
X155.52Y-90.36
X155.52Y-97.98
X155.52Y-100.78
X155.52Y-103.32
X155.52Y-105.86
X155.52Y-113.48
T3
X154.95Y-127.4
X156.95Y-127.4
X158.95Y-127.4
X160.95Y-127.4
X162.95Y-127.4
X164.95Y-127.4
X166.95Y-127.4
X168.95Y-127.4
X170.95Y-127.4
X172.95Y-127.4
T4
X98.3Y-62.36
X100.84Y-62.36
X103.38Y-62.36
X105.92Y-62.36
X112.8Y-72.9
X112.8Y-75.44
X112.8Y-77.98
X112.8Y-80.52
X126.85Y-75.05
X129.39Y-75.05
X131.25Y-89.0
X131.25Y-91.54
X131.25Y-94.08
X131.93Y-75.05
X134.47Y-75.05
X134.85Y-113.37
X134.85Y-115.91
X134.85Y-118.45
X134.85Y-120.99
X134.85Y-123.53
X137.01Y-75.05
X139.45Y-118.36
X139.45Y-120.9
X139.45Y-123.44
X139.45Y-125.98
X139.55Y-75.05
X141.1Y-87.5
X141.1Y-90.04
X141.1Y-92.58
X141.2Y-103.1
X141.2Y-105.64
X141.2Y-108.18
X141.99Y-63.25
X141.99Y-65.79
X141.99Y-118.36
X141.99Y-120.9
X141.99Y-123.44
X141.99Y-125.98
X144.53Y-63.25
X144.53Y-65.79
X147.07Y-63.25
X147.07Y-65.79
X149.61Y-63.25
X149.61Y-65.79
X151.7Y-103.15
X151.7Y-105.69
X151.7Y-108.23
X151.9Y-87.5
X151.9Y-90.04
X151.9Y-92.58
X152.15Y-63.25
X152.15Y-65.79
X154.69Y-63.25
X154.69Y-65.79
X156.044Y-121.482
X157.23Y-63.25
X157.23Y-65.79
X158.584Y-121.482
X160.2Y-71.08
X160.2Y-73.62
X160.2Y-76.16
X160.2Y-78.7
X160.2Y-86.58
X160.2Y-89.12
X160.2Y-91.66
X160.2Y-94.2
X160.2Y-102.08
X160.2Y-104.62
X160.2Y-107.16
X160.2Y-109.7
X161.124Y-121.482
X161.6Y-62.71
X161.6Y-65.25
X163.664Y-121.482
X165.89Y-98.49
X168.43Y-98.49
X169.444Y-118.972
X169.6Y-62.71
X169.6Y-65.25
X169.6Y-72.27
X169.6Y-74.81
X169.6Y-77.35
X170.97Y-98.49
X171.984Y-118.972
X174.524Y-118.972
X177.064Y-118.972
X177.6Y-62.71
X177.6Y-65.25
X179.89Y-104.41
X179.89Y-106.95
X184.23Y-118.86
X186.77Y-118.86
X189.31Y-118.86
X190.94Y-104.45
X190.94Y-106.99
X191.85Y-118.86
T5
X177.8Y-112.02
X182.88Y-112.02
X191.14Y-112.04
T6
X100.71Y-71.28
X112.7Y-124.28
X179.78Y-81.29
T0
M30
